{"asset":{"version":"2.0","generator":"Codex lampadaire generator"},"scene":0,"scenes":[{"nodes":[0]}],"nodes":[{"mesh":0}],"meshes":[{"primitives":[{"attributes":{"POSITION":0,"NORMAL":1},"indices":2,"material":0},{"attributes":{"POSITION":0,"NORMAL":1},"indices":3,"material":0},{"attributes":{"POSITION":0,"NORMAL":1},"indices":4,"material":0},{"attributes":{"POSITION":0,"NORMAL":1},"indices":5,"material":0},{"attributes":{"POSITION":0,"NORMAL":1},"indices":6,"material":0},{"attributes":{"POSITION":0,"NORMAL":1},"indices":7,"material":0},{"attributes":{"POSITION":0,"NORMAL":1},"indices":8,"material":0},{"attributes":{"POSITION":0,"NORMAL":1},"indices":9,"material":0},{"attributes":{"POSITION":0,"NORMAL":1},"indices":10,"material":0},{"attributes":{"POSITION":0,"NORMAL":1},"indices":11,"material":0},{"attributes":{"POSITION":0,"NORMAL":1},"indices":12,"material":0},{"attributes":{"POSITION":0,"NORMAL":1},"indices":13,"material":0},{"attributes":{"POSITION":0,"NORMAL":1},"indices":14,"material":1},{"attributes":{"POSITION":0,"NORMAL":1},"indices":15,"material":1},{"attributes":{"POSITION":0,"NORMAL":1},"indices":16,"material":1},{"attributes":{"POSITION":0,"NORMAL":1},"indices":17,"material":1},{"attributes":{"POSITION":0,"NORMAL":1},"indices":18,"material":1},{"attributes":{"POSITION":0,"NORMAL":1},"indices":19,"material":1},{"attributes":{"POSITION":0,"NORMAL":1},"indices":20,"material":0},{"attributes":{"POSITION":0,"NORMAL":1},"indices":21,"material":0},{"attributes":{"POSITION":0,"NORMAL":1},"indices":22,"material":0},{"attributes":{"POSITION":0,"NORMAL":1},"indices":23,"material":0},{"attributes":{"POSITION":0,"NORMAL":1},"indices":24,"material":0},{"attributes":{"POSITION":0,"NORMAL":1},"indices":25,"material":0}]}],"materials":[{"name":"dark metal","pbrMetallicRoughness":{"baseColorFactor":[0.05,0.08,0.11,1],"metallicFactor":0.2,"roughnessFactor":0.45}},{"name":"warm light panel","pbrMetallicRoughness":{"baseColorFactor":[1,0.78,0.16,1],"metallicFactor":0,"roughnessFactor":0.2},"emissiveFactor":[1,0.72,0.12]}],"buffers":[{"uri":"data:application/octet-stream;base64,","byteLength":2592}],"bufferViews":[{"buffer":0,"byteOffset":0,"byteLength":1152,"target":34962},{"buffer":0,"byteOffset":1152,"byteLength":1152,"target":34962},{"buffer":0,"byteOffset":2304,"byteLength":12,"target":34963},{"buffer":0,"byteOffset":2316,"byteLength":12,"target":34963},{"buffer":0,"byteOffset":2328,"byteLength":12,"target":34963},{"buffer":0,"byteOffset":2340,"byteLength":12,"target":34963},{"buffer":0,"byteOffset":2352,"byteLength":12,"target":34963},{"buffer":0,"byteOffset":2364,"byteLength":12,"target":34963},{"buffer":0,"byteOffset":2376,"byteLength":12,"target":34963},{"buffer":0,"byteOffset":2388,"byteLength":12,"target":34963},{"buffer":0,"byteOffset":2400,"byteLength":12,"target":34963},{"buffer":0,"byteOffset":2412,"byteLength":12,"target":34963},{"buffer":0,"byteOffset":2424,"byteLength":12,"target":34963},{"buffer":0,"byteOffset":2436,"byteLength":12,"target":34963},{"buffer":0,"byteOffset":2448,"byteLength":12,"target":34963},{"buffer":0,"byteOffset":2460,"byteLength":12,"target":34963},{"buffer":0,"byteOffset":2472,"byteLength":12,"target":34963},{"buffer":0,"byteOffset":2484,"byteLength":12,"target":34963},{"buffer":0,"byteOffset":2496,"byteLength":12,"target":34963},{"buffer":0,"byteOffset":2508,"byteLength":12,"target":34963},{"buffer":0,"byteOffset":2520,"byteLength":12,"target":34963},{"buffer":0,"byteOffset":2532,"byteLength":12,"target":34963},{"buffer":0,"byteOffset":2544,"byteLength":12,"target":34963},{"buffer":0,"byteOffset":2556,"byteLength":12,"target":34963},{"buffer":0,"byteOffset":2568,"byteLength":12,"target":34963},{"buffer":0,"byteOffset":2580,"byteLength":12,"target":34963}],"accessors":[{"bufferView":0,"componentType":5126,"count":96,"type":"VEC3","min":[-0.675,0,-0.275],"max":[0.675,12.42,0.275]},{"bufferView":1,"componentType":5126,"count":96,"type":"VEC3"},{"bufferView":2,"componentType":5123,"count":6,"type":"SCALAR"},{"bufferView":3,"componentType":5123,"count":6,"type":"SCALAR"},{"bufferView":4,"componentType":5123,"count":6,"type":"SCALAR"},{"bufferView":5,"componentType":5123,"count":6,"type":"SCALAR"},{"bufferView":6,"componentType":5123,"count":6,"type":"SCALAR"},{"bufferView":7,"componentType":5123,"count":6,"type":"SCALAR"},{"bufferView":8,"componentType":5123,"count":6,"type":"SCALAR"},{"bufferView":9,"componentType":5123,"count":6,"type":"SCALAR"},{"bufferView":10,"componentType":5123,"count":6,"type":"SCALAR"},{"bufferView":11,"componentType":5123,"count":6,"type":"SCALAR"},{"bufferView":12,"componentType":5123,"count":6,"type":"SCALAR"},{"bufferView":13,"componentType":5123,"count":6,"type":"SCALAR"},{"bufferView":14,"componentType":5123,"count":6,"type":"SCALAR"},{"bufferView":15,"componentType":5123,"count":6,"type":"SCALAR"},{"bufferView":16,"componentType":5123,"count":6,"type":"SCALAR"},{"bufferView":17,"componentType":5123,"count":6,"type":"SCALAR"},{"bufferView":18,"componentType":5123,"count":6,"type":"SCALAR"},{"bufferView":19,"componentType":5123,"count":6,"type":"SCALAR"},{"bufferView":20,"componentType":5123,"count":6,"type":"SCALAR"},{"bufferView":21,"componentType":5123,"count":6,"type":"SCALAR"},{"bufferView":22,"componentType":5123,"count":6,"type":"SCALAR"},{"bufferView":23,"componentType":5123,"count":6,"type":"SCALAR"},{"bufferView":24,"componentType":5123,"count":6,"type":"SCALAR"},{"bufferView":25,"componentType":5123,"count":6,"type":"SCALAR"}]}